
<global>
amp_veltrack=0
ampeg_release=0.25
xf_cccurve=gain
xfin_hicc1=127
xfout_hicc1=127
xfout_locc1=127
</global>

<group>
group_label=FF

<region>
hikey=B3
hivel=127
lokey=A#3
loop_end=271409
loop_mode=loop_continuous
loop_start=88226
loop_xfade=22196
lovel=0
pitch_keycenter=A#3
sample=Cor_sustain_FF_A#3.opus
</region>

<region>
hikey=B4
hivel=127
lokey=A#4
loop_end=271482
loop_mode=loop_continuous
loop_start=88249
loop_xfade=22202
lovel=0
pitch_keycenter=A#4
sample=Cor_sustain_FF_A#4.opus
</region>

<region>
hikey=C#4
hivel=127
lokey=C4
loop_end=270992
loop_mode=loop_continuous
loop_start=88090
loop_xfade=22162
lovel=0
sample=Cor_sustain_FF_C4.opus
</region>

<region>
hikey=C#5
hivel=127
lokey=C5
loop_end=271864
loop_mode=loop_continuous
loop_start=88374
loop_xfade=22234
lovel=0
pitch_keycenter=C5
sample=Cor_sustain_FF_C5.opus
</region>

<region>
hikey=D#4
hivel=127
lokey=D4
loop_end=270649
loop_mode=loop_continuous
loop_start=87979
loop_xfade=22134
lovel=0
pitch_keycenter=D4
sample=Cor_sustain_FF_D4.opus
</region>

<region>
hikey=D#5
hivel=127
lokey=D5
loop_end=263625
loop_mode=loop_continuous
loop_start=85695
loop_xfade=21560
lovel=0
pitch_keycenter=D5
sample=Cor_sustain_FF_D5.opus
</region>

<region>
hikey=F3
hivel=127
lokey=E3
loop_end=271396
loop_mode=loop_continuous
loop_start=88222
loop_xfade=22195
lovel=0
pitch_keycenter=E3
sample=Cor_sustain_FF_E3.opus
</region>

<region>
hikey=F4
hivel=127
lokey=E4
loop_end=261613
loop_mode=loop_continuous
loop_start=85042
loop_xfade=21395
lovel=0
pitch_keycenter=E4
sample=Cor_sustain_FF_E4.opus
</region>

<region>
hikey=F5
hivel=127
lokey=E5
loop_end=257265
loop_mode=loop_continuous
loop_start=83628
loop_xfade=21040
lovel=0
pitch_keycenter=E5
sample=Cor_sustain_FF_E5.opus
</region>

<region>
hikey=G3
hivel=127
lokey=F#3
loop_end=273977
loop_mode=loop_continuous
loop_start=89061
loop_xfade=22406
lovel=0
pitch_keycenter=F#3
sample=Cor_sustain_FF_F#3.opus
</region>

<region>
hikey=G4
hivel=127
lokey=F#4
loop_end=265545
loop_mode=loop_continuous
loop_start=86320
loop_xfade=21717
lovel=0
pitch_keycenter=F#4
sample=Cor_sustain_FF_F#4.opus
</region>

<region>
hikey=D6
hivel=127
lokey=F#5
loop_end=257793
loop_mode=loop_continuous
loop_start=83800
loop_xfade=21083
lovel=0
pitch_keycenter=F#5
sample=Cor_sustain_FF_F#5.opus
</region>

<region>
hikey=A3
hivel=127
lokey=G#3
loop_end=270382
loop_mode=loop_continuous
loop_start=87892
loop_xfade=22112
lovel=0
pitch_keycenter=G#3
sample=Cor_sustain_FF_G#3.opus
</region>

<region>
hikey=A4
hivel=127
lokey=G#4
loop_end=274415
loop_mode=loop_continuous
loop_start=89203
loop_xfade=22442
lovel=0
pitch_keycenter=G#4
sample=Cor_sustain_FF_G#4.opus
</region>
</group>